{"title":"La grande bellezza (The Great Beauty) - 816p ITA sub ENG","uid":9504833,"size":8542959362,"categoryP":"video","categoryS":"hd___movies","magnet":"?xt=urn:btih:624962f3d69b2b18597f99cec65200aa1b5f30ab&amp;dn=La+grande+bellezza+%28The+Great+Beauty%29+-+816p+ITA+sub+ENG&amp;tr=udp%3A%2F%2Ftracker.openbittorrent.com%3A80&amp;tr=udp%3A%2F%2Fopen.demonii.com%3A1337&amp;tr=udp%3A%2F%2Ftracker.coppersurfer.tk%3A6969&amp;tr=udp%3A%2F%2Fexodus.desync.com%3A6969","seeders":3,"leechers":1,"uploader":"ziopino","files":1,"time":1390298469,"description":"Format                                   : Matroska\nFormat version                           : Version 4 / Version 2\nFile size                                : 7.96 GiB\nDuration                                 : 2h 20mn\nOverall bit rate                         : 8 097 Kbps\nEncoded date                             : UTC 2014-01-18 16:58:14\nWriting application                      : mkvmerge v6.7.0 ('Back to the Ground') 32bit built on Jan  8 2014 15:03:17\nWriting library                          : libebml v1.3.0 + libmatroska v1.4.1\n\nVideo\nID                                       : 1\nFormat                                   : AVC\nFormat/Info                              : Advanced Video Codec\nFormat profile                           : &lt;a class=&quot;__cf_email__&quot; href=&quot;/cdn-cgi/l/email-protection&quot; data-cfemail=&quot;d39bbab4bb939fe7fde2&quot;&gt;[email&amp;#160;protected]&lt;/a&gt;&lt;script cf-hash='f9e31' type=&quot;text/javascript&quot;&gt;\n/* &lt;![CDATA[ */!function(){try{var t=&quot;currentScript&quot;in document?document.currentScript:function(){for(var t=document.getElementsByTagName(&quot;script&quot;),e=t.length;e--;)if(t[e].getAttribute(&quot;cf-hash&quot;))return t[e]}();if(t&amp;&amp;t.previousSibling){var e,r,n,i,c=t.previousSibling,a=c.getAttribute(&quot;data-cfemail&quot;);if(a){for(e=&quot;&quot;,r=parseInt(a.substr(0,2),16),n=2;a.length-n;n+=2)i=parseInt(a.substr(n,2),16)^r,e+=String.fromCharCode(i);e=document.createTextNode(e),c.parentNode.replaceChild(e,c)}}}catch(u){}}();/* ]]&gt; */&lt;/script&gt;\nFormat settings, CABAC                   : Yes\nFormat settings, ReFrames                : 4 frames\nCodec ID                                 : V_MPEG4/ISO/AVC\nDuration                                 : 2h 20mn\nBit rate                                 : 7 451 Kbps\nWidth                                    : 1 920 pixels\nHeight                                   : 816 pixels\nDisplay aspect ratio                     : 2.35:1\nFrame rate mode                          : Constant\nFrame rate                               : 24.000 fps\nColor space                              : YUV\nChroma subsampling                       : 4:2:0\nBit depth                                : 8 bits\nScan type                                : Progressive\nBits/(Pixel*Frame)                       : 0.198\nStream size                              : 7.17 GiB (90%)\nTitle                                    : AVC @ 7451 Kbps\nWriting library                          : x264 core 138 r2358 9e941d1\nLanguage                                 : Italian\nDefault                                  : Yes\nForced                                   : No\n\nAudio\nID                                       : 2\nFormat                                   : AC-3\nFormat/Info                              : Audio Coding 3\nMode extension                           : CM (complete main)\nFormat settings, Endianness              : Big\nCodec ID                                 : A_AC3\nDuration                                 : 2h 20mn\nBit rate mode                            : Constant\nBit rate                                 : 640 Kbps\nChannel(s)                               : 6 channels\nChannel positions                        : Front: L C R, Side: L R, LFE\nSampling rate                            : 48.0 KHz\nBit depth                                : 16 bits\nCompression mode                         : Lossy\nStream size                              : 644 MiB (8%)\nTitle                                    : AC3 Italian @ 640 Kbps\nLanguage                                 : Italian\nDefault                                  : Yes\nForced                                   : No\n\nText #1\nID                                       : 3\nFormat                                   : VobSub\nMuxing mode                              : zlib\nCodec ID                                 : S_VOBSUB\nCodec ID/Info                            : The same subtitle format used on DVDs\nTitle                                    : Italian\nLanguage                                 : Italian\nDefault                                  : No\nForced                                   : No\n\nText #2\nID                                       : 4\nFormat                                   : UTF-8\nCodec ID                                 : S_TEXT/UTF8\nCodec ID/Info                            : UTF-8 Plain Text\nTitle                                    : English\nLanguage                                 : English\nDefault                                  : No\nForced                                   : No\n\nMenu\n00:00:00.000                             : en:00:00:00.000\n00:12:38.833                             : en:00:12:38.833\n00:21:04.625                             : en:00:21:04.625\n00:26:05.208                             : en:00:26:05.208\n00:42:57.917                             : en:00:42:57.917\n00:54:46.042                             : en:00:54:46.042\n01:10:15.000                             : en:01:10:15.000\n01:22:31.750                             : en:01:22:31.750\n01:31:05.417                             : en:01:31:05.417\n01:45:46.417                             : en:01:45:46.417\n01:54:50.833                             : en:01:54:50.833\n02:07:58.833                             : en:02:07:58.833\n","torrent":{"xt":"urn:btih:624962f3d69b2b18597f99cec65200aa1b5f30ab","amp;dn":"La+grande+bellezza+%28The+Great+Beauty%29+-+816p+ITA+sub+ENG","amp;tr":["udp%3A%2F%2Ftracker.openbittorrent.com%3A80","udp%3A%2F%2Fopen.demonii.com%3A1337","udp%3A%2F%2Ftracker.coppersurfer.tk%3A6969","udp%3A%2F%2Fexodus.desync.com%3A6969"],"infoHash":"624962f3d69b2b18597f99cec65200aa1b5f30ab","infoHashBuffer":{"type":"Buffer","data":[98,73,98,243,214,155,43,24,89,127,153,206,198,82,0,170,27,95,48,171]},"announce":[],"urlList":[]}}